<mxfile host="app.diagrams.net" modified="2023-11-25T02:56:47.511Z" agent="Mozilla/5.0 (Macintosh; Intel Mac OS X 10_15_7) AppleWebKit/605.1.15 (KHTML, like Gecko) Version/16.6 Safari/605.1.15" etag="TXNSzaw_Pez9HFNQSa0w" version="22.1.4" type="github">
  <diagram name="Page-1" id="X8_yNPGJ9M-oAsI4BwFP">
    <mxGraphModel dx="989" dy="570" grid="1" gridSize="10" guides="1" tooltips="1" connect="1" arrows="1" fold="1" page="1" pageScale="1" pageWidth="3200" pageHeight="5500" math="0" shadow="0">
      <root>
        <mxCell id="0" />
        <mxCell id="1" parent="0" />
        <mxCell id="c3ieAX2ZFSlNz4iBocQw-1" value="$$\mathcal{L}_D^{RMLSoftmax\_SSL} =&#xa;    -\log(\sigma(s\cdot (\cos(m_3\cdot \zeta_r) - \cos(\zeta_f))))$$&#xa;   &#xa;$$\mathcal{L}_G^{RMLSoftmax\_SSL} = -(1-\alpha) \dot \sum_{i=1}^{K}\hat{y}_i^{[g]} \log(C(G(\boldsymbol{z}))_i) -\alpha \cdot  \log(\sigma(s \cdot (\cos(m_3\cdot \zeta_f) - \cos(\zeta_r))))$$" style="text;whiteSpace=wrap;fontSize=15;fontColor=#FF0000;" vertex="1" parent="1">
          <mxGeometry x="350" y="240" width="560" height="110" as="geometry" />
        </mxCell>
      </root>
    </mxGraphModel>
  </diagram>
</mxfile>
